<?xml version="1.0" encoding="UTF-8" standalone="no"?>
<!-- Created with Inkscape (http://www.inkscape.org/) -->

<svg
   xmlns:dc="http://purl.org/dc/elements/1.1/"
   xmlns:cc="http://creativecommons.org/ns#"
   xmlns:rdf="http://www.w3.org/1999/02/22-rdf-syntax-ns#"
   xmlns:svg="http://www.w3.org/2000/svg"
   xmlns="http://www.w3.org/2000/svg"
   xmlns:sodipodi="http://sodipodi.sourceforge.net/DTD/sodipodi-0.dtd"
   xmlns:inkscape="http://www.inkscape.org/namespaces/inkscape"
   width="512"
   height="512"
   id="svg2"
   version="1.1"
   inkscape:version="0.48.4 r9939"
   sodipodi:docname="mouse.svg">
  <defs
     id="defs4" />
  <sodipodi:namedview
     id="base"
     pagecolor="#ffffff"
     bordercolor="#666666"
     borderopacity="1.0"
     inkscape:pageopacity="0.0"
     inkscape:pageshadow="2"
     inkscape:zoom="1"
     inkscape:cx="237.82459"
     inkscape:cy="226.38765"
     inkscape:document-units="px"
     inkscape:current-layer="layer1"
     showgrid="false"
     inkscape:window-width="1280"
     inkscape:window-height="917"
     inkscape:window-x="241"
     inkscape:window-y="85"
     inkscape:window-maximized="0">
    <inkscape:grid
       type="xygrid"
       id="grid5457"
       empspacing="5"
       visible="true"
       enabled="true"
       snapvisiblegridlinesonly="true" />
  </sodipodi:namedview>
  <metadata
     id="metadata7">
    <rdf:RDF>
      <cc:Work
         rdf:about="">
        <dc:format>image/svg+xml</dc:format>
        <dc:type
           rdf:resource="http://purl.org/dc/dcmitype/StillImage" />
        <dc:title></dc:title>
      </cc:Work>
    </rdf:RDF>
  </metadata>
  <g
     inkscape:label="Layer 1"
     inkscape:groupmode="layer"
     id="layer1"
     transform="translate(0,-540.3622)">
    <path
       style="font-size:medium;font-style:normal;font-variant:normal;font-weight:normal;font-stretch:normal;text-indent:0;text-align:start;text-decoration:none;line-height:normal;letter-spacing:normal;word-spacing:normal;text-transform:none;direction:ltr;block-progression:tb;writing-mode:lr-tb;text-anchor:start;baseline-shift:baseline;color:#000000;fill:#000000;fill-opacity:1;fill-rule:nonzero;stroke:none;stroke-width:50;marker:none;visibility:visible;display:inline;overflow:visible;enable-background:accumulate;font-family:Sans;-inkscape-font-specification:Sans"
       d="m 256,637.71875 c -52.60014,0 -85.57282,6.07356 -109.3125,20.09375 -23.73968,14.02019 -33.63525,37.71467 -37.1875,54.84375 -12.348923,59.54857 -7.78753,147.7518 3.40625,207.75 7.22897,38.74761 21.33676,73.70861 45.09375,100.09375 23.75699,26.3851 58.0778,42.875 98,42.875 39.92219,0 74.24301,-16.4899 98,-42.875 23.75699,-26.38514 37.86478,-61.34614 45.09375,-100.09375 11.19379,-59.9982 15.75519,-148.20143 3.40625,-207.75 C 398.94776,695.52717 389.05218,671.83269 365.3125,657.8125 341.57282,643.79231 308.60015,637.71875 256,637.71875 z m 0,50 c 48.31096,0 73.33925,6.93404 83.875,13.15625 10.53575,6.22221 11.18814,10.03618 13.65625,21.9375 9.611,46.34583 6.2825,135.47005 -3.59375,188.40625 -6.04196,32.38519 -17.67717,58.69044 -33.09375,75.8125 C 301.42717,1004.1533 283.13512,1013.375 256,1013.375 c -27.13513,0 -45.42717,-9.2217 -60.84375,-26.34375 -15.41658,-17.12206 -27.05178,-43.42731 -33.09375,-75.8125 -9.87624,-52.9362 -13.20475,-142.06042 -3.59375,-188.40625 2.46811,-11.90132 3.1205,-15.71529 13.65625,-21.9375 10.53575,-6.22221 35.56404,-13.15625 83.875,-13.15625 z"
       id="rect2985"
       inkscape:connector-curvature="0" />
    <path
       style="font-size:medium;font-style:normal;font-variant:normal;font-weight:normal;font-stretch:normal;text-indent:0;text-align:start;text-decoration:none;line-height:normal;letter-spacing:normal;word-spacing:normal;text-transform:none;direction:ltr;block-progression:tb;writing-mode:lr-tb;text-anchor:start;baseline-shift:baseline;color:#000000;fill:#000000;fill-opacity:1;stroke:none;stroke-width:35;marker:none;visibility:visible;display:inline;overflow:visible;enable-background:accumulate;font-family:Sans;-inkscape-font-specification:Sans"
       d="m 136,783.96875 -12.9375,32.5 c 0,0 11.19725,4.31455 32.5625,8 21.36525,3.68545 54.12668,7.25 100.96875,7.25 46.84208,0 79.6035,-3.56455 100.96875,-7.25 21.36525,-3.68545 32.53125,-8 32.53125,-8 l -12.9375,-32.5 c 0,0 -6.37991,2.69105 -25.5625,6 -19.18259,3.30895 -49.93363,6.75 -95,6.75 -45.06636,0 -75.84866,-3.44105 -95.03125,-6.75 -19.18259,-3.30895 -25.5625,-6 -25.5625,-6 z"
       id="path4683"
       inkscape:connector-curvature="0" />
    <path
       style="font-size:medium;font-style:normal;font-variant:normal;font-weight:normal;font-stretch:normal;text-indent:0;text-align:start;text-decoration:none;line-height:normal;letter-spacing:normal;word-spacing:normal;text-transform:none;direction:ltr;block-progression:tb;writing-mode:lr-tb;text-anchor:start;baseline-shift:baseline;color:#000000;fill:#000000;fill-opacity:1;stroke:none;stroke-width:35;marker:none;visibility:visible;display:inline;overflow:visible;enable-background:accumulate;font-family:Sans;-inkscape-font-specification:Sans"
       d="m 194.46875,666.75 0,142.96875 35,0 0,-142.96875 -35,0 z"
       id="path5453"
       inkscape:connector-curvature="0" />
    <path
       style="font-size:medium;font-style:normal;font-variant:normal;font-weight:normal;font-stretch:normal;text-indent:0;text-align:start;text-decoration:none;line-height:normal;letter-spacing:normal;word-spacing:normal;text-transform:none;direction:ltr;block-progression:tb;writing-mode:lr-tb;text-anchor:start;baseline-shift:baseline;color:#000000;fill:#000000;fill-opacity:1;stroke:none;stroke-width:35;marker:none;visibility:visible;display:inline;overflow:visible;enable-background:accumulate;font-family:Sans;-inkscape-font-specification:Sans"
       d="m 280.96875,666.75 0,142.96875 35,0 0,-142.96875 -35,0 z"
       id="path5455"
       inkscape:connector-curvature="0" />
    <path
       style="font-size:medium;font-style:normal;font-variant:normal;font-weight:normal;font-stretch:normal;text-indent:0;text-align:start;text-decoration:none;line-height:normal;letter-spacing:normal;word-spacing:normal;text-transform:none;direction:ltr;block-progression:tb;writing-mode:lr-tb;text-anchor:start;baseline-shift:baseline;color:#000000;fill:#000000;fill-opacity:1;stroke:none;stroke-width:35;marker:none;visibility:visible;display:inline;overflow:visible;enable-background:accumulate;font-family:Sans;-inkscape-font-specification:Sans"
       d="m 300.625,572.34375 c 0,11.4953 -2.21625,14.47325 -5.03125,17.28125 -2.815,2.808 -8.53172,5.58432 -16.90625,9.1875 -8.37453,3.60318 -19.48396,8.27499 -28.625,18.71875 -9.14104,10.44376 -14.46875,25.82594 -14.46875,45.1875 l 35,0 c 0,-13.60884 2.76052,-18.63806 5.8125,-22.125 3.05198,-3.48694 8.21092,-6.26463 16.09375,-9.65625 7.88283,-3.39162 18.43448,-7.17655 27.8125,-16.53125 9.37802,-9.3547 15.3125,-24.1234 15.3125,-42.0625 l -35,0 z"
       id="path5460"
       inkscape:connector-curvature="0" />
  </g>
</svg>
